<svg xmlns="http://www.w3.org/2000/svg" width="94.905" height="69.425" viewBox="0 0 94.905 69.425">
  <g id="birthday" transform="translate(-2.5 -15.275)">
    <g id="Gruppe_1" data-name="Gruppe 1">
      <path id="Pfad_1" data-name="Pfad 1" d="M25,29.7a18.587,18.587,0,0,1,2.7-5.3.283.283,0,0,1,.5,0,21.575,21.575,0,0,1,2.7,5.3,6.445,6.445,0,0,0,2.9-5.4c0-2.5-3.1-6.5-4.7-8.5a1.312,1.312,0,0,0-2.1,0c-1.7,2-4.7,6-4.7,8.5A5.849,5.849,0,0,0,25,29.7Z"/>
      <path id="Pfad_2" data-name="Pfad 2" d="M25.2,32.1a2.006,2.006,0,0,0-2,2V45.6h9.6V34.1a2.006,2.006,0,0,0-2-2Z"/>
      <path id="Pfad_3" data-name="Pfad 3" d="M47.1,29.7a18.587,18.587,0,0,1,2.7-5.3.283.283,0,0,1,.5,0A21.575,21.575,0,0,1,53,29.7a6.445,6.445,0,0,0,2.9-5.4c0-2.5-3.1-6.5-4.7-8.5a1.312,1.312,0,0,0-2.1,0c-1.7,2-4.7,6-4.7,8.5A5.849,5.849,0,0,0,47.1,29.7Z"/>
      <path id="Pfad_4" data-name="Pfad 4" d="M47.3,32.1a2.006,2.006,0,0,0-2,2V45.6h9.6V34.1a2.006,2.006,0,0,0-2-2Z"/>
      <path id="Pfad_5" data-name="Pfad 5" d="M69.2,29.7a18.587,18.587,0,0,1,2.7-5.3.283.283,0,0,1,.5,0,21.575,21.575,0,0,1,2.7,5.3A6.445,6.445,0,0,0,78,24.3c0-2.5-3.1-6.5-4.7-8.5a1.312,1.312,0,0,0-2.1,0c-1.7,2-4.7,6-4.7,8.5A5.659,5.659,0,0,0,69.2,29.7Z"/>
      <path id="Pfad_6" data-name="Pfad 6" d="M69.3,32.1a2.006,2.006,0,0,0-2,2V45.6h9.6V34.1a2.006,2.006,0,0,0-2-2Z"/>
      <path id="Pfad_7" data-name="Pfad 7" d="M94.3,78.3H89.8V68.7a6.847,6.847,0,0,1-3-1.1l-2.8-2a3.015,3.015,0,0,0-3.4,0l-2.8,2a6.164,6.164,0,0,1-7.1,0l-2.8-2a3.015,3.015,0,0,0-3.4,0l-2.8,2a6.164,6.164,0,0,1-7.1,0l-2.8-2a3.015,3.015,0,0,0-3.4,0l-2.8,2a6.164,6.164,0,0,1-7.1,0l-2.8-2a3.015,3.015,0,0,0-3.4,0l-2.8,2a6.164,6.164,0,0,1-7.1,0l-2.8-2a3.015,3.015,0,0,0-3.4,0l-2.8,2a6.467,6.467,0,0,1-2.9,1.1v9.6H5.7a3.2,3.2,0,1,0,0,6.4H94.2a3.222,3.222,0,0,0,3.2-3.2A3.077,3.077,0,0,0,94.3,78.3Z"/>
      <path id="Pfad_8" data-name="Pfad 8" d="M14.1,62.9a6.164,6.164,0,0,1,7.1,0l2.8,2a3.015,3.015,0,0,0,3.4,0l2.8-2a6.164,6.164,0,0,1,7.1,0l2.8,2a3.015,3.015,0,0,0,3.4,0l2.8-2a6.164,6.164,0,0,1,7.1,0l2.8,2a3.015,3.015,0,0,0,3.4,0l2.8-2a6.164,6.164,0,0,1,7.1,0l2.8,2a3.015,3.015,0,0,0,3.4,0l2.8-2a6.164,6.164,0,0,1,7.1,0l2.8,2a2.1,2.1,0,0,0,1.1.4V61A12.291,12.291,0,0,0,77.2,48.7h-55A12.291,12.291,0,0,0,9.9,61v4.3a4.874,4.874,0,0,0,1.1-.4Z"/>
    </g>
  </g>
</svg>
