<svg xmlns="http://www.w3.org/2000/svg" width="85.717" height="89.923" viewBox="0 0 85.717 89.923">
  <g id="call" transform="translate(-6.994 -5.01)">
    <g id="Gruppe_2" data-name="Gruppe 2">
      <g id="Gruppe_1" data-name="Gruppe 1">
        <path id="Pfad_1" data-name="Pfad 1" d="M52.6,71.1c-.5-1.4-1.7-2.4-4.5-4-2.8-1.5-5.4-1.1-8.7-.2-3.2.9-6.2,4.2-6.2,4.2s-5.7-4-9.8-13.7a31.105,31.105,0,0,1-1.6-18.7s3,2.1,9.7-1.5c6.6-3.6,5.1-11.1,5.1-11.1s-1.7-5.5-3.5-9.9-4.8-5.5-4.8-5.5S25,9.3,19.1,11c-4.1,1.2-7.3,5.5-9,8.1a13.219,13.219,0,0,0-1.7,4.1A72.073,72.073,0,0,0,7.4,45C10.5,65.7,19,76.9,19,76.9S29.4,91.8,38,94.1s13.5-.6,16.7-3.4,2.2-7.3,2.2-7.3S53.1,72.5,52.6,71.1Z"/>
        <path id="Pfad_2" data-name="Pfad 2" d="M92.4,42.5A58.7,58.7,0,0,0,75.1,6.3a4.618,4.618,0,0,0-6.6.2l-.9,1a4.5,4.5,0,0,0,.2,6.2,48.816,48.816,0,0,1,7,60.6A4.568,4.568,0,0,0,76,80.4l1.1.8A4.574,4.574,0,0,0,83.6,80,58.957,58.957,0,0,0,92.4,42.5Z"/>
        <path id="Pfad_3" data-name="Pfad 3" d="M76.7,44.1A43.5,43.5,0,0,0,65.3,18.9a4.529,4.529,0,0,0-6.8.1l-.9,1a4.582,4.582,0,0,0,.1,6.1,33.332,33.332,0,0,1,8.6,19.1,33.811,33.811,0,0,1-4.1,19.7,4.664,4.664,0,0,0,1.3,5.9l1.1.8a4.493,4.493,0,0,0,6.6-1.5A44.454,44.454,0,0,0,76.7,44.1Z"/>
        <path id="Pfad_4" data-name="Pfad 4" d="M54.2,31.9a4.607,4.607,0,0,0-7-.2l-.9,1a4.52,4.52,0,0,0-.2,5.7A16.223,16.223,0,0,1,48.2,55a4.54,4.54,0,0,0,1.5,5.6l1.1.8a4.548,4.548,0,0,0,6.8-1.8A26.16,26.16,0,0,0,60,45.7,28,28,0,0,0,54.2,31.9Z"/>
      </g>
    </g>
  </g>
</svg>
