<svg xmlns="http://www.w3.org/2000/svg" width="101.25" height="92.813" viewBox="0 0 101.25 92.813">
  <g id="medication" transform="translate(-0.48 -0.76)">
    <path id="Pfad_1" data-name="Pfad 1" d="M.48,46.157A15.844,15.844,0,0,1,16.346,30.291H34.23V16.626A15.844,15.844,0,0,1,50.1.76h2.019A15.844,15.844,0,0,1,67.98,16.626V30.291H85.865A15.844,15.844,0,0,1,101.73,46.157v2.019A15.844,15.844,0,0,1,85.865,64.042H67.98V77.707A15.844,15.844,0,0,1,52.115,93.573H50.1A15.844,15.844,0,0,1,34.23,77.707V64.042H16.346A15.844,15.844,0,0,1,.48,48.176V46.157ZM63.31,21.4a12.2,12.2,0,1,0-24.409,0V72.931a12.2,12.2,0,1,0,24.409,0ZM60.6,47.166V71.093c0,6.253-4.249,11.33-9.492,11.33s-9.492-5.078-9.492-11.33V47.166H60.6Z" transform="translate(0 0)" fill-rule="evenodd"/>
  </g>
</svg>
